# Blender 3.3.1
# www.blender.org
mtllib current_arrow.mtl
o Cone
v 0.000000 8.460538 -0.500000
v 0.097545 8.460538 -0.490393
v 0.191342 8.460538 -0.461940
v 0.277785 8.460538 -0.415735
v 0.353553 8.460538 -0.353553
v 0.415735 8.460538 -0.277785
v 0.461940 8.460538 -0.191342
v 0.490393 8.460538 -0.097545
v 0.500000 8.460538 0.000000
v 0.490393 8.460538 0.097545
v 0.461940 8.460538 0.191342
v 0.415735 8.460538 0.277785
v 0.353553 8.460538 0.353553
v 0.277785 8.460538 0.415735
v 0.191342 8.460538 0.461940
v 0.097545 8.460538 0.490393
v 0.000000 8.460538 0.500000
v -0.097545 8.460538 0.490393
v -0.191342 8.460538 0.461940
v -0.277785 8.460538 0.415735
v -0.353553 8.460538 0.353553
v -0.415735 8.460538 0.277785
v -0.461940 8.460538 0.191342
v -0.490393 8.460538 0.097545
v -0.500000 8.460538 0.000000
v -0.490393 8.460538 -0.097545
v -0.461940 8.460538 -0.191342
v -0.415735 8.460538 -0.277785
v -0.353553 8.460538 -0.353553
v -0.277785 8.460538 -0.415735
v -0.191342 8.460538 -0.461940
v -0.097545 8.460538 -0.490393
v 0.000000 11.460538 0.000000
vn 0.0967 0.1636 -0.9818
vn 0.2864 0.1636 -0.9440
vn 0.4650 0.1636 -0.8700
vn 0.6258 0.1636 -0.7626
vn 0.7626 0.1636 -0.6258
vn 0.8700 0.1636 -0.4650
vn 0.9440 0.1636 -0.2864
vn 0.9818 0.1636 -0.0967
vn 0.9818 0.1636 0.0967
vn 0.9440 0.1636 0.2864
vn 0.8700 0.1636 0.4650
vn 0.7626 0.1636 0.6258
vn 0.6258 0.1636 0.7626
vn 0.4650 0.1636 0.8700
vn 0.2864 0.1636 0.9440
vn 0.0967 0.1636 0.9818
vn -0.0967 0.1636 0.9818
vn -0.2864 0.1636 0.9440
vn -0.4650 0.1636 0.8700
vn -0.6258 0.1636 0.7626
vn -0.7626 0.1636 0.6258
vn -0.8700 0.1636 0.4650
vn -0.9440 0.1636 0.2864
vn -0.9818 0.1636 0.0967
vn -0.9818 0.1636 -0.0967
vn -0.9440 0.1636 -0.2864
vn -0.8700 0.1636 -0.4650
vn -0.7626 0.1636 -0.6258
vn -0.6258 0.1636 -0.7626
vn -0.4650 0.1636 -0.8700
vn -0.0000 -1.0000 -0.0000
vn -0.2864 0.1636 -0.9440
vn -0.0967 0.1636 -0.9818
vt 0.250000 0.490000
vt 0.750000 0.490000
vt 0.296822 0.485388
vt 0.796822 0.485388
vt 0.341844 0.471731
vt 0.841844 0.471731
vt 0.383337 0.449553
vt 0.883337 0.449553
vt 0.419706 0.419706
vt 0.919706 0.419706
vt 0.449553 0.383337
vt 0.949553 0.383337
vt 0.471731 0.341844
vt 0.971731 0.341844
vt 0.485388 0.296822
vt 0.985388 0.296822
vt 0.490000 0.250000
vt 0.990000 0.250000
vt 0.485388 0.203178
vt 0.985388 0.203178
vt 0.471731 0.158156
vt 0.971731 0.158156
vt 0.449553 0.116663
vt 0.949553 0.116663
vt 0.419706 0.080294
vt 0.919706 0.080294
vt 0.383337 0.050447
vt 0.883337 0.050447
vt 0.341844 0.028269
vt 0.841844 0.028269
vt 0.296822 0.014612
vt 0.796822 0.014612
vt 0.250000 0.010000
vt 0.750000 0.010000
vt 0.203178 0.014612
vt 0.703178 0.014612
vt 0.158156 0.028269
vt 0.658156 0.028269
vt 0.116663 0.050447
vt 0.616663 0.050447
vt 0.080294 0.080294
vt 0.580294 0.080294
vt 0.050447 0.116663
vt 0.550447 0.116663
vt 0.028269 0.158156
vt 0.528269 0.158156
vt 0.014612 0.203178
vt 0.514612 0.203178
vt 0.010000 0.250000
vt 0.510000 0.250000
vt 0.014612 0.296822
vt 0.514612 0.296822
vt 0.028269 0.341844
vt 0.528269 0.341844
vt 0.050447 0.383337
vt 0.550447 0.383337
vt 0.080294 0.419706
vt 0.580294 0.419706
vt 0.116663 0.449553
vt 0.616663 0.449553
vt 0.158156 0.471731
vt 0.658156 0.471731
vt 0.203178 0.485388
vt 0.703178 0.485388
vt 0.250000 0.250000
s 0
f 1/1/1 33/65/1 2/3/1
f 2/3/2 33/65/2 3/5/2
f 3/5/3 33/65/3 4/7/3
f 4/7/4 33/65/4 5/9/4
f 5/9/5 33/65/5 6/11/5
f 6/11/6 33/65/6 7/13/6
f 7/13/7 33/65/7 8/15/7
f 8/15/8 33/65/8 9/17/8
f 9/17/9 33/65/9 10/19/9
f 10/19/10 33/65/10 11/21/10
f 11/21/11 33/65/11 12/23/11
f 12/23/12 33/65/12 13/25/12
f 13/25/13 33/65/13 14/27/13
f 14/27/14 33/65/14 15/29/14
f 15/29/15 33/65/15 16/31/15
f 16/31/16 33/65/16 17/33/16
f 17/33/17 33/65/17 18/35/17
f 18/35/18 33/65/18 19/37/18
f 19/37/19 33/65/19 20/39/19
f 20/39/20 33/65/20 21/41/20
f 21/41/21 33/65/21 22/43/21
f 22/43/22 33/65/22 23/45/22
f 23/45/23 33/65/23 24/47/23
f 24/47/24 33/65/24 25/49/24
f 25/49/25 33/65/25 26/51/25
f 26/51/26 33/65/26 27/53/26
f 27/53/27 33/65/27 28/55/27
f 28/55/28 33/65/28 29/57/28
f 29/57/29 33/65/29 30/59/29
f 30/59/30 33/65/30 31/61/30
f 16/32/31 24/48/31 32/64/31
f 31/61/32 33/65/32 32/63/32
f 32/63/33 33/65/33 1/1/33
f 32/64/31 1/2/31 2/4/31
f 2/4/31 3/6/31 4/8/31
f 4/8/31 5/10/31 6/12/31
f 6/12/31 7/14/31 8/16/31
f 8/16/31 9/18/31 10/20/31
f 10/20/31 11/22/31 12/24/31
f 12/24/31 13/26/31 14/28/31
f 14/28/31 15/30/31 16/32/31
f 16/32/31 17/34/31 18/36/31
f 18/36/31 19/38/31 20/40/31
f 20/40/31 21/42/31 22/44/31
f 22/44/31 23/46/31 24/48/31
f 24/48/31 25/50/31 26/52/31
f 26/52/31 27/54/31 28/56/31
f 28/56/31 29/58/31 30/60/31
f 30/60/31 31/62/31 32/64/31
f 32/64/31 2/4/31 4/8/31
f 4/8/31 6/12/31 8/16/31
f 8/16/31 10/20/31 12/24/31
f 12/24/31 14/28/31 16/32/31
f 16/32/31 18/36/31 20/40/31
f 20/40/31 22/44/31 24/48/31
f 24/48/31 26/52/31 28/56/31
f 28/56/31 30/60/31 32/64/31
f 32/64/31 4/8/31 8/16/31
f 8/16/31 12/24/31 16/32/31
f 16/32/31 20/40/31 24/48/31
f 24/48/31 28/56/31 32/64/31
f 32/64/31 8/16/31 16/32/31
o Cylinder.001
v 0.000000 0.000000 -0.200000
v 0.000000 10.000000 -0.200000
v 0.039018 0.000000 -0.196157
v 0.039018 10.000000 -0.196157
v 0.076537 0.000000 -0.184776
v 0.076537 10.000000 -0.184776
v 0.111114 0.000000 -0.166294
v 0.111114 10.000000 -0.166294
v 0.141421 0.000000 -0.141421
v 0.141421 10.000000 -0.141421
v 0.166294 0.000000 -0.111114
v 0.166294 10.000000 -0.111114
v 0.184776 0.000000 -0.076537
v 0.184776 10.000000 -0.076537
v 0.196157 0.000000 -0.039018
v 0.196157 10.000000 -0.039018
v 0.200000 0.000000 -0.000000
v 0.200000 10.000000 0.000000
v 0.196157 0.000000 0.039018
v 0.196157 10.000000 0.039018
v 0.184776 0.000000 0.076537
v 0.184776 10.000000 0.076537
v 0.166294 0.000000 0.111114
v 0.166294 10.000000 0.111114
v 0.141421 0.000000 0.141421
v 0.141421 10.000000 0.141421
v 0.111114 0.000000 0.166294
v 0.111114 10.000000 0.166294
v 0.076537 0.000000 0.184776
v 0.076537 10.000000 0.184776
v 0.039018 0.000000 0.196157
v 0.039018 10.000000 0.196157
v 0.000000 0.000000 0.200000
v 0.000000 10.000000 0.200000
v -0.039018 0.000000 0.196157
v -0.039018 10.000000 0.196157
v -0.076537 0.000000 0.184776
v -0.076537 10.000000 0.184776
v -0.111114 0.000000 0.166294
v -0.111114 10.000000 0.166294
v -0.141421 0.000000 0.141421
v -0.141421 10.000000 0.141421
v -0.166294 0.000000 0.111114
v -0.166294 10.000000 0.111114
v -0.184776 0.000000 0.076537
v -0.184776 10.000000 0.076537
v -0.196157 0.000000 0.039018
v -0.196157 10.000000 0.039018
v -0.200000 0.000000 -0.000000
v -0.200000 10.000000 0.000000
v -0.196157 0.000000 -0.039018
v -0.196157 10.000000 -0.039018
v -0.184776 0.000000 -0.076537
v -0.184776 10.000000 -0.076537
v -0.166294 0.000000 -0.111114
v -0.166294 10.000000 -0.111114
v -0.141421 0.000000 -0.141421
v -0.141421 10.000000 -0.141421
v -0.111114 0.000000 -0.166294
v -0.111114 10.000000 -0.166294
v -0.076537 0.000000 -0.184776
v -0.076537 10.000000 -0.184776
v -0.039018 0.000000 -0.196157
v -0.039018 10.000000 -0.196157
vn 0.0980 -0.0000 -0.9952
vn 0.2903 -0.0000 -0.9569
vn 0.4714 -0.0000 -0.8819
vn 0.6344 -0.0000 -0.7730
vn 0.7730 -0.0000 -0.6344
vn 0.8819 -0.0000 -0.4714
vn 0.9569 -0.0000 -0.2903
vn 0.9952 -0.0000 -0.0980
vn 0.9952 -0.0000 0.0980
vn 0.9569 -0.0000 0.2903
vn 0.8819 -0.0000 0.4714
vn 0.7730 -0.0000 0.6344
vn 0.6344 -0.0000 0.7730
vn 0.4714 -0.0000 0.8819
vn 0.2903 -0.0000 0.9569
vn 0.0980 -0.0000 0.9952
vn -0.0980 -0.0000 0.9952
vn -0.2903 -0.0000 0.9569
vn -0.4714 -0.0000 0.8819
vn -0.6344 -0.0000 0.7730
vn -0.7730 -0.0000 0.6344
vn -0.8819 -0.0000 0.4714
vn -0.9569 -0.0000 0.2903
vn -0.9952 -0.0000 0.0980
vn -0.9952 -0.0000 -0.0980
vn -0.9569 -0.0000 -0.2903
vn -0.8819 -0.0000 -0.4714
vn -0.7730 -0.0000 -0.6344
vn -0.6344 -0.0000 -0.7730
vn -0.4714 -0.0000 -0.8819
vn -0.0000 1.0000 -0.0000
vn -0.2903 -0.0000 -0.9569
vn -0.0980 -0.0000 -0.9952
vn -0.0000 -1.0000 -0.0000
vn -0.0000 1.0000 -0.0001
vn -0.0000 1.0000 0.0001
vt 1.000000 0.500000
vt 0.000000 0.500000
vt 0.750000 0.490000
vt 1.000000 1.000000
vt 0.250000 0.490000
vt 0.000000 1.000000
vt 0.968750 0.500000
vt 0.796822 0.485388
vt 0.968750 1.000000
vt 0.296822 0.485388
vt 0.937500 0.500000
vt 0.841844 0.471731
vt 0.937500 1.000000
vt 0.341844 0.471731
vt 0.906250 0.500000
vt 0.883337 0.449553
vt 0.906250 1.000000
vt 0.383337 0.449553
vt 0.875000 0.500000
vt 0.919706 0.419706
vt 0.875000 1.000000
vt 0.419706 0.419706
vt 0.843750 0.500000
vt 0.949553 0.383337
vt 0.843750 1.000000
vt 0.449553 0.383337
vt 0.812500 0.500000
vt 0.971731 0.341844
vt 0.812500 1.000000
vt 0.471731 0.341844
vt 0.781250 0.500000
vt 0.985388 0.296822
vt 0.781250 1.000000
vt 0.485388 0.296822
vt 0.750000 0.500000
vt 0.990000 0.250000
vt 0.750000 1.000000
vt 0.490000 0.250000
vt 0.718750 0.500000
vt 0.985388 0.203178
vt 0.718750 1.000000
vt 0.485388 0.203178
vt 0.687500 0.500000
vt 0.971731 0.158156
vt 0.687500 1.000000
vt 0.471731 0.158156
vt 0.656250 0.500000
vt 0.949553 0.116663
vt 0.656250 1.000000
vt 0.449553 0.116663
vt 0.625000 0.500000
vt 0.919706 0.080294
vt 0.625000 1.000000
vt 0.419706 0.080294
vt 0.593750 0.500000
vt 0.883337 0.050447
vt 0.593750 1.000000
vt 0.383337 0.050447
vt 0.562500 0.500000
vt 0.841844 0.028269
vt 0.562500 1.000000
vt 0.341844 0.028269
vt 0.531250 0.500000
vt 0.796822 0.014612
vt 0.531250 1.000000
vt 0.296822 0.014612
vt 0.500000 0.500000
vt 0.750000 0.010000
vt 0.500000 1.000000
vt 0.250000 0.010000
vt 0.468750 0.500000
vt 0.703178 0.014612
vt 0.468750 1.000000
vt 0.203178 0.014612
vt 0.437500 0.500000
vt 0.658156 0.028269
vt 0.437500 1.000000
vt 0.158156 0.028269
vt 0.406250 0.500000
vt 0.616663 0.050447
vt 0.406250 1.000000
vt 0.116663 0.050447
vt 0.375000 0.500000
vt 0.580294 0.080294
vt 0.375000 1.000000
vt 0.080294 0.080294
vt 0.343750 0.500000
vt 0.550447 0.116663
vt 0.343750 1.000000
vt 0.050447 0.116663
vt 0.312500 0.500000
vt 0.528269 0.158156
vt 0.312500 1.000000
vt 0.028269 0.158156
vt 0.281250 0.500000
vt 0.514612 0.203178
vt 0.281250 1.000000
vt 0.014612 0.203178
vt 0.250000 0.500000
vt 0.510000 0.250000
vt 0.250000 1.000000
vt 0.010000 0.250000
vt 0.218750 0.500000
vt 0.514612 0.296822
vt 0.218750 1.000000
vt 0.014612 0.296822
vt 0.187500 0.500000
vt 0.528269 0.341844
vt 0.187500 1.000000
vt 0.028269 0.341844
vt 0.156250 0.500000
vt 0.550447 0.383337
vt 0.156250 1.000000
vt 0.050447 0.383337
vt 0.125000 0.500000
vt 0.580294 0.419706
vt 0.125000 1.000000
vt 0.080294 0.419706
vt 0.093750 0.500000
vt 0.616663 0.449553
vt 0.093750 1.000000
vt 0.116663 0.449553
vt 0.062500 0.500000
vt 0.658156 0.471731
vt 0.158156 0.471731
vt 0.062500 1.000000
vt 0.031250 0.500000
vt 0.703178 0.485388
vt 0.203178 0.485388
vt 0.031250 1.000000
s 0
f 35/69/34 36/72/34 34/66/34
f 37/74/35 38/76/35 36/72/35
f 39/78/36 40/80/36 38/76/36
f 41/82/37 42/84/37 40/80/37
f 43/86/38 44/88/38 42/84/38
f 45/90/39 46/92/39 44/88/39
f 47/94/40 48/96/40 46/92/40
f 49/98/41 50/100/41 48/96/41
f 51/102/42 52/104/42 50/100/42
f 53/106/43 54/108/43 52/104/43
f 55/110/44 56/112/44 54/108/44
f 57/114/45 58/116/45 56/112/45
f 59/118/46 60/120/46 58/116/46
f 61/122/47 62/124/47 60/120/47
f 63/126/48 64/128/48 62/124/48
f 65/130/49 66/132/49 64/128/49
f 67/134/50 68/136/50 66/132/50
f 69/138/51 70/140/51 68/136/51
f 71/142/52 72/144/52 70/140/52
f 73/146/53 74/148/53 72/144/53
f 75/150/54 76/152/54 74/148/54
f 77/154/55 78/156/55 76/152/55
f 79/158/56 80/160/56 78/156/56
f 81/162/57 82/164/57 80/160/57
f 83/166/58 84/168/58 82/164/58
f 85/170/59 86/172/59 84/168/59
f 87/174/60 88/176/60 86/172/60
f 89/178/61 90/180/61 88/176/61
f 91/182/62 92/184/62 90/180/62
f 93/186/63 94/188/63 92/184/63
f 71/143/64 55/111/64 39/79/64
f 95/191/65 96/192/65 94/188/65
f 97/195/66 34/67/66 96/192/66
f 64/129/67 80/161/67 96/193/67
f 35/69/34 37/74/34 36/72/34
f 37/74/35 39/78/35 38/76/35
f 39/78/36 41/82/36 40/80/36
f 41/82/37 43/86/37 42/84/37
f 43/86/38 45/90/38 44/88/38
f 45/90/39 47/94/39 46/92/39
f 47/94/40 49/98/40 48/96/40
f 49/98/41 51/102/41 50/100/41
f 51/102/42 53/106/42 52/104/42
f 53/106/43 55/110/43 54/108/43
f 55/110/44 57/114/44 56/112/44
f 57/114/45 59/118/45 58/116/45
f 59/118/46 61/122/46 60/120/46
f 61/122/47 63/126/47 62/124/47
f 63/126/48 65/130/48 64/128/48
f 65/130/49 67/134/49 66/132/49
f 67/134/50 69/138/50 68/136/50
f 69/138/51 71/142/51 70/140/51
f 71/142/52 73/146/52 72/144/52
f 73/146/53 75/150/53 74/148/53
f 75/150/54 77/154/54 76/152/54
f 77/154/55 79/158/55 78/156/55
f 79/158/56 81/162/56 80/160/56
f 81/162/57 83/166/57 82/164/57
f 83/166/58 85/170/58 84/168/58
f 85/170/59 87/174/59 86/172/59
f 87/174/60 89/178/60 88/176/60
f 89/178/61 91/182/61 90/180/61
f 91/182/62 93/186/62 92/184/62
f 93/186/63 95/191/63 94/188/63
f 39/79/68 37/75/68 35/70/68
f 35/70/68 97/194/68 95/190/68
f 95/190/64 93/187/64 91/183/64
f 91/183/64 89/179/64 87/175/64
f 87/175/64 85/171/64 83/167/64
f 83/167/64 81/163/64 79/159/64
f 79/159/64 77/155/64 75/151/64
f 75/151/64 73/147/64 71/143/64
f 71/143/69 69/139/69 67/135/69
f 67/135/69 65/131/69 63/127/69
f 63/127/64 61/123/64 59/119/64
f 59/119/64 57/115/64 55/111/64
f 55/111/64 53/107/64 51/103/64
f 51/103/64 49/99/64 47/95/64
f 47/95/64 45/91/64 43/87/64
f 43/87/64 41/83/64 39/79/64
f 39/79/64 35/70/64 95/190/64
f 95/190/64 91/183/64 87/175/64
f 87/175/64 83/167/64 79/159/64
f 79/159/64 75/151/64 71/143/64
f 71/143/64 67/135/64 63/127/64
f 63/127/64 59/119/64 55/111/64
f 55/111/64 51/103/64 47/95/64
f 47/95/64 43/87/64 39/79/64
f 39/79/64 95/190/64 87/175/64
f 87/175/64 79/159/64 71/143/64
f 71/143/64 63/127/64 55/111/64
f 55/111/64 47/95/64 39/79/64
f 39/79/64 87/175/64 71/143/64
f 95/191/65 97/195/65 96/192/65
f 97/195/66 35/71/66 34/67/66
f 96/193/67 34/68/67 36/73/67
f 36/73/67 38/77/67 40/81/67
f 40/81/67 42/85/67 44/89/67
f 44/89/67 46/93/67 48/97/67
f 48/97/67 50/101/67 52/105/67
f 52/105/67 54/109/67 56/113/67
f 56/113/67 58/117/67 60/121/67
f 60/121/67 62/125/67 64/129/67
f 64/129/67 66/133/67 68/137/67
f 68/137/67 70/141/67 72/145/67
f 72/145/67 74/149/67 76/153/67
f 76/153/67 78/157/67 80/161/67
f 80/161/67 82/165/67 84/169/67
f 84/169/67 86/173/67 88/177/67
f 88/177/67 90/181/67 92/185/67
f 92/185/67 94/189/67 96/193/67
f 96/193/67 36/73/67 40/81/67
f 40/81/67 44/89/67 48/97/67
f 48/97/67 52/105/67 56/113/67
f 56/113/67 60/121/67 64/129/67
f 64/129/67 68/137/67 72/145/67
f 72/145/67 76/153/67 80/161/67
f 80/161/67 84/169/67 88/177/67
f 88/177/67 92/185/67 96/193/67
f 96/193/67 40/81/67 48/97/67
f 48/97/67 56/113/67 64/129/67
f 64/129/67 72/145/67 80/161/67
f 80/161/67 88/177/67 96/193/67
f 96/193/67 48/97/67 64/129/67
